<svg
    xmlns="http://www.w3.org/2000/svg"
    xmlns:xlink="http://www.w3.org/1999/xlink"
    viewBox="0 0 700 400"
    shape-rendering="geometricPrecision"
    text-rendering="geometricPrecision"
>
    
    <defs>
        <linearGradient
            id="exbRPUQGNqn28-fill"
            x1="180"
            y1="-180"
            x2="1620"
            y2="1260"
            spreadMethod="pad"
            gradientUnits="userSpaceOnUse"
            gradientTransform="translate(0 0)"
        >
            <stop id="exbRPUQGNqn28-fill-0" offset="0%" stop-color="#452d4a"/>
            <stop id="exbRPUQGNqn28-fill-1" offset="100%" stop-color="#28254f"/>
        </linearGradient>
    </defs>
    <g transform="matrix(.370952 0 0 0.370952 15.756952-.4344)">
        <rect
                width="2183.444442"
                height="1085.471309"
                rx="0"
                ry="0"
                transform="matrix(1.077897 0 0 1.020362-274.952086-14.061266)"
                fill="url(#exbRPUQGNqn28-fill)"
        >
        </rect>
        <path d="M571.82,14.23h-2v10h2v-10m0,24h-2v10h2v-10m0,24h-2v10h2v-10m0,24h-2v10h2v-10m0,24h-2v10h2v-10m0,24h-2v10h2v-10m0,24h-2v10h2v-10m0,24h-2v10h2v-10m0,24h-2v10h2v-10m0,24h-2v10h2v-10m0,24h-2v10h2v-10m0,24h-2v10h2v-10m0,24h-2v10h2v-10m0,24h-2v10h2v-10m0,24h-2v10h2v-10m0,24h-2v10h2v-10m0,24h-2v10h2v-10m0,24h-2v10h2v-10m0,24h-2v10h2v-10m0,24h-2v10h2v-10m0,24h-2v10h2v-10m0,24h-2v10h2v-10m0,24h-2v10h2v-10m0,24h-2v10h2v-10m0,24h-2v10h2v-10m0,24h-2v10h2v-10m0,24h-2v10h2v-10m0,24h-2v10h2v-10m0,24h-2v10h2v-10m0,24h-2v10h2v-10m0,24h-2v10h2v-10m0,24h-2v10h2v-10m0,24h-2v10h2v-10m0,24h-2v10h2v-10m392.71,10.14h-10v2h10v-2m-24,0h-10v2h10v-2m-24,0h-10v2h10v-2m-24,0h-10v2h10v-2m-24,0h-10v2h10v-2m-24,0h-10v2h10v-2m-24,0h-10v2h10v-2m-24,0h-10v2h10v-2m-24,0h-10v2h10v-2m-24,0h-10v2h10v-2m-24,0h-10v2h10v-2m-24,0h-10v2h10v-2m-24,0h-10v2h10v-2m-24,0h-10v2h10v-2m-24,0h-10v2h10v-2m-24,0h-10v2h10v-2m-24,0h-10v2h10v-2m-24,0h-10v2h10v-2m-24,0h-10v2h10v-2m-24,0h-10v2h10v-2m-24,0h-10v2h10v-2m-24,0h-10v2h10v-2m-24,0h-10v2h10v-2m-24.08.33c-3.355398.277839-6.693511.73516-10,1.37l.38,2c3.236865-.62462,6.504887-1.075267,9.79-1.35l-.17-2m566.13.11l-.14,2c3.32.23,6.63.54,9.9,1l.25-2c-3.32-.41-6.64-.72-10-1m23.89,3.2l-.39,2c3.26.66,6.5,1.39,9.69,2.21l.5-1.93q-4.86-1.25-9.8-2.24m-613.65,1.78c-3.17938,1.119746-6.294169,2.415071-9.33,3.88l.87,1.81c2.96818-1.435509,6.012738-2.707412,9.12-3.81l-.66-1.88m636.93,4.48l-.64,1.89q4.71,1.61,9.31,3.46l.75-1.86q-4.65-1.86-9.42-3.49m-453.93,4h-2v10h2v-10m-204.57,2.51c-2.776002,1.892964-5.446639,3.936002-8,6.12l1.29,1.53c2.508155-2.142418,5.132109-4.145436,7.86-6l-1.12-1.65M1048,835.5l-.88,1.79c3,1.46,5.91,3,8.79,4.62l1-1.74c-2.92-1.63-5.88-3.2-8.89-4.67m20.88,12l-1.11,1.67q4.14,2.75,8.13,5.72l1.19-1.6q-4-3-8.21-5.79m-719.74,1.3c-2.213525,2.554649-4.289784,5.225078-6.22,8l1.63,1.15c1.891664-2.70455,3.92796-5.305001,6.1-7.79l-1.51-1.31m222.66,5.43h-2v10h2v-10m516.23,7.89l-1.32,1.51q3.75,3.27,7.33,6.72l1.38-1.44q-3.6-3.49-7.39-6.79M335.72,868.9c-1.498189,3.016226-2.833442,6.110675-4,9.27l1.87.69c1.148449-3.089285,2.456885-6.116712,3.92-9.07l-1.79-.89m236.1,9.33h-2v10h2v-10m533.36.84l-1.49,1.33q3.3,3.72,6.41,7.61l1.56-1.25c-2.1-2.62-4.25-5.18-6.48-7.69M327.84,891.76c-.679956,3.303846-1.180687,6.642057-1.5,10l2,.18c.310401-3.281168.801143-6.542766,1.47-9.77l-2-.4v0M1120,898.08l-1.64,1.13q2.79,4.11,5.37,8.37l1.71-1q-2.61-4.31-5.44-8.46m-548.19,4.14h-2v10h2v-10M328,915.77l-2,.11c.170918,3.350153.524779,6.688463,1.06,10l2-.31c-.506373-3.256749-.840172-6.537997-1-9.83m804.26,3.08l-1.78.91c1.49,3,2.92,6,4.26,9l1.82-.81q-2-4.61-4.3-9.1M571.86,926.2h-2v10h2v-10m-239.6,12.86l-1.91.6c1.033865,3.209464,2.232114,6.36363,3.59,9.45l1.83-.81c-1.335534-3.014547-2.507241-6.099041-3.51-9.24m809.51,2l-1.89.66q1.65,4.68,3,9.46l1.91-.55q-1.41-4.85-3.07-9.57m-569.95,9.18h-2v10h2v-10M342.3,960.5l-1.69,1.08c1.810621,2.838197,3.770022,5.578688,5.87,8.21l1.57-1.24c-2.058528-2.561786-3.97796-5.2323-5.75-8m806,3.76l-2,.41c.68,3.23,1.29,6.49,1.8,9.78l2-.31c-.51-3.32-1.12-6.61-1.81-9.88m-576.46,10h-2v10h2v-10M357.45,978.7l-1.36,1.46c2.465774,2.293705,5.052825,4.453476,7.75,6.47L365,985c-2.64135-1.972786-5.174989-4.085821-7.59-6.33m794.28,9.41l-2,.16q.39,4.93.52,9.93l2-.06c-.09-3.36-.26-6.71-.53-10m-775,4.36l-.95,1.76c2.966621,1.59468,6.017796,3.026795,9.14,4.29l.75-1.85c-3.053736-1.237353-6.038119-2.639412-8.94-4.2m195.12,5.76h-2v5.21h-3.46v2h3.46v2.79h2v-2.79h4.55v-2h-4.55v-5.21m-173,2.67l-.46,1.94c3.27457.78618,6.589462,1.393743,9.93,1.82l.26-2c-3.272388-.421755-6.520238-1.015915-9.73-1.78m825.56,2.54h-10v2h10v-2m-24,0h-10v2h10v-2m-24,0h-10v2h10v-2m-24,0h-10v2h10v-2m-24,0h-10v2h10v-2m-24,0h-10v2h10v-2m-24,0h-10v2h10v-2m-24,0h-10v2h10v-2m-24,0h-10v2h10v-2m-24,0h-10v2h10v-2m-24,0h-10v2h10v-2m-24,0h-10v2h10v-2m-24,0h-10v2h10v-2m-24,0h-10v2h10v-2m-24,0h-10v2h10v-2m-24,0h-10v2h10v-2m-24,0h-10v2h10v-2m-24,0h-10v2h10v-2m-24,0h-10v2h10v-2m-24,0h-10v2h10v-2m-24,0h-10v2h10v-2m-24,0h-10v2h10v-2m-24,0h-10v2h10v-2m-24,0h-10v2h10v-2m-24,0h-10v2h10v-2m-24,0h-10v2h10v-2m-24,0h-10v2h10v-2m-48,0h-10v2h10v-2m-24,0h-10v2h10v-2m-24,0h-10v2h10v-2m-24,0h-10v2h10v-2m-24,0h-10v2h10v-2m-24,0h-10v2h10v-2m806,0v2v0c3.297604.068735,6.589077.315762,9.86.74l.25-2c-3.3-.42-6.67-.67-10.07-.76m23.91,3.61l-.55,1.92c3.174618.911356,6.298958,1.98952,9.36,3.23l.74-1.85c-3.121541-1.271289-6.309526-2.372896-9.55-3.3m-110,5.12h-2v10h2v-10m132.2,4.47l-1,1.72c2.832276,1.69152,5.575883,3.527267,8.22,5.5l1.19-1.61c-2.697649-2.014003-5.498088-3.886526-8.39-5.61m-712.7,5.58h-2v10h2v-10m731.74,9.33l-1.42,1.41c2.314868,2.342982,4.504575,4.806402,6.56,7.38l1.56-1.24c-2.096306-2.635011-4.332872-5.155321-6.7-7.55m-151.24,4.61h-2v10h2v-10m-580.5,10h-2v10h2v-10m746.4,4.57l-1.74,1c1.655699,2.854668,3.151342,5.799216,4.48,8.82l1.83-.81c-1.356611-3.081784-2.882265-6.086353-4.57-9m-165.9,9.38h-2v10h2v-10m-580.5,10.06h-2v10h2v-10m755.69,2.88l-1.93.53c.867641,3.179985,1.561997,6.404731,2.08,9.66l2-.31c-.525509-3.329614-1.233239-6.627901-2.12-9.88m-175.19,11.07h-2v10h2v-10m-580.5,10h-2v10h2v-10m759,2.83h-2v10h2v-10m-178.49,11.11h-2v10h2v-10m-580.5,10h-2v10h2v-10m759,2.86h-2v10h2v-10m-178.49,11.09h-2v10h2v-10m-580.5,10.06h-2v5.12h-2.58v2h2.53v2.88h2v-2.88h5.48v-2h-5.48v-5.12m759,2.85h-2v10h2v-10m-570.95,2.27h-.57v2h.57c3.15,0,6.26.16,9.32.46l.19-2c-3.12-.31-6.3-.46-9.51-.46m-14.56,0h-10v2h10v-2m-24,0h-10v2h10v-2m-24,0h-10v2h10v-2m-24,0h-10v2h10v-2m-24,0h-10v2h10v-2m-24,0h-10v2h10v-2m-24,0h-10v2h10v-2m-48,0h-10v2h10v-2m-24,0h-10v2h10v-2m-24,0h-10v2h10v-2m-24,0h-10v2h10v-2m-24,0h-10v2h10v-2m-24,0h-10v2h10v-2m-24,0h-10v2h10v-2m-24,0h-10v2h10v-2m-24,0h-10v2h10v-2m-24,0h-10v2h10v-2m-24,0h-10v2h10v-2m-24,0h-10v2h10v-2m-24,0h-10v2h10v-2m-24,0h-10v2h10v-2m-24,0h-10v2h10v-2m-24,0h-10v2h10v-2m-24,0h-10v2h10v-2m-24,0h-10v2h10v-2m-24,0h-10v2h10v-2m-24,0h-2.79q-3.69,0-7.3.27l.15,2q3.54-.27,7.15-.27h2.77v-2m-24,2.39c-3.281989.764338-6.522864,1.695548-9.71,2.79l.66,1.89c3.116255-1.077061,6.287362-1.988337,9.5-2.73l-.45-2m710,.53l-.5,1.94c3.194346.831939,6.342135,1.833356,9.43,3l.71-1.87c-3.15862-1.168009-6.376381-2.169387-9.64-3m369,5.91h-2v10h2v-10m-1101.74,2c-2.984651,1.565181-5.882238,3.291048-8.68,5.17L43,1165c2.740311-1.841289,5.577749-3.533737,8.5-5.07l-.93-1.77m755.17,1l-1,1.74c2.879617,1.610136,5.673402,3.369187,8.37,5.27l1.15-1.64c-2.755325-1.936492-5.609151-3.728895-8.55-5.37m-233.93,7h-2v10h2v-10m759,2.84h-2v10h2v-10m-1300,3c-2.490048,2.268322-4.856774,4.668429-7.09,7.19l1.5,1.33c2.186075-2.452844,4.49925-4.789384,6.93-7l-1.34-1.48m794.42,1.49l-1.39,1.45c2.38725,2.280417,4.650499,4.687206,6.78,7.21l1.52-1.29c-2.170131-2.578246-4.476767-5.038435-6.91-7.37m327.11,6.61h-2v10h2v-10m-580.5,10h-2v10h2v-10m-556.66.29c-1.81902,2.830366-3.48799,5.7544-5,8.76l1.79.9c1.484979-2.94291,3.127357-5.803718,4.92-8.57l-1.67-1.09m825.25,1.87l-1.7,1c1.731079,2.806478,3.310025,5.703992,4.73,8.68l1.8-.86c-1.445469-3.043336-3.057925-6.004512-4.83-8.87m490.4.7h-2v10h2v-10m-178.49,11.09h-2v10h2v-10M4.71,1212.33c-1.056653,3.196187-1.937965,6.447695-2.64,9.74l2,.42c.677821-3.206127,1.525686-6.373935,2.54-9.49l-1.9-.62m567.11,1.9h-2v10h2v-10m278.53.21l-1.91.58c.949916,3.156909,1.734318,6.361273,2.35,9.6l2-.37c-.622855-3.310812-1.424021-6.585579-2.4-9.81m480.46,2.64h-2v10h2v-10m-178.49,11.1h-2v10h2v-10M0.17,1236.08c-.12,1.91-.17,3.85-.17,5.79v4.26h2v-4.26c0-1.9,0-3.79.17-5.68l-2-.11m571.65,2.15h-2v10h2v-10m282.5.06l-2,.07q.06,1.76.06,3.51v6.46h2v-6.46c0-1.19,0-2.39-.07-3.58m476.49,2.78h-2v10h2v-10m-178.49,11.1h-2v10h2v-10M2,1260.13h-2v10h2v-10m569.82,2.09h-2v10h2v-10m282.57.11h-2v10h2v-10m476.42,2.75h-2v10h2v-10m-178.49,11.09h-2v10h2v-10M2,1284.14h-2v10h2v-10m569.82,2.09h-2v10h2v-10m282.57.09h-2v10h2v-10m476.42,2.76h-2v10h2v-10m-178.49,11.1h-2v10h2v-10M2,1308.13h-2v10h2v-10m569.82,2.1h-2v10h2v-10m282.57.1h-2v10h2v-10m476.42,2.74h-2v10h2v-10m-178.49,11.1h-2v10h2v-10M2,1332.13h-2v10h2v-10m569.82,2.09h-2v10h2v-10m282.57.11h-2v10h2v-10m476.42,2.75h-2v10h2v-10m-178.49,11.09h-2v10h2v-10M2,1356.14h-2v10h2v-10m569.82,2.09h-2v10h2v-10m282.57.09h-2v10h2v-10m476.42,2.76h-2v10h2v-10m-178.49,11.1h-2v10h2v-10M2,1380.13h-2v10h2v-10m569.82,2.1h-2v10h2v-10m282.57.1h-2v10h2v-10m476.42,2.74h-2v10h2v-10m-178.49,11.1h-2v10h2v-10M2,1404.13h-2v10h2v-10m569.82,2.09h-2v10h2v-10m282.57.11h-2v10h2v-10m476.42,2.75h-2v10h2v-10m-178.49,11.09h-2v10h2v-10M2,1428.14h-2v10h2v-10m569.82,2.09h-2v10h2v-10m282.57.09h-2v10h2v-10m476.42,2.76h-2v10h2v-10m-178.49,11.1h-2v10h2v-10M2,1452.13h-2v10h2v-10m569.82,2.1h-2v10h2v-10m282.57.1h-2v10h2v-10m476.42,2.74h-2v10h2v-10m-178.49,11.1h-2v10h2v-10M2,1476.13h-2v10h2v-10m569.82,2.09h-2v5.49c0,1.53,0,3,.1,4.57l2-.1c-.07-1.48-.11-3-.11-4.47v-5.49m282.57.11h-2v10h2v-10m476.42,2.75h-2v2.63c0,2.45-.09,4.88-.28,7.27l2,.17q.29-3.69.29-7.44v-2.63m-178.49,11.09h-2v10h2v-10M2,1500.14h-2v10h2v-10m571.61,1.77l-2,.39c.659696,3.302876,1.497587,6.567647,2.51,9.78l1.9-.59c-.984179-3.148137-1.801976-6.345894-2.45-9.58m280.78.41h-2v10h2v-10m472.05,2.34c-.754362,3.211412-1.672224,6.382208-2.75,9.5l1.88.66c1.117434-3.181596,2.055574-6.423352,2.81-9.71l-1.94-.45m-174.12,11.52h-2v10h2v-10M2,1524.13h-2v10h2v-10m579.19.2l-1.8.88c1.48357,3.026495,3.129294,5.970771,4.93,8.82L586,1533v0c-1.764033-2.785907-3.373141-5.666945-4.82-8.63m273.2,2h-2v10h2v-10m463.78.52c-1.543541,2.916978-3.23921,5.750881-5.08,8.49l1.66,1.11c1.881408-2.791246,3.610596-5.682128,5.18-8.66l-1.76-.94m-165.85,13.32h-2v10h2v-10m-558.09,3.91l-1.52,1.31c2.198827,2.55567,4.535643,4.989297,7,7.29l1.36-1.46c-2.400264-2.258617-4.68008-4.641908-6.83-7.14m710.29,2.13c-2.208288,2.429819-4.544959,4.739786-7,6.92l1.32,1.5c2.527827-2.22626,4.934607-4.586307,7.21-7.07l-1.48-1.35M2,1548.13h-2v10h2v-10m852.39,2.2h-2v10h2v-10m-242.55,9.58l-1.14,1.64c2.775835,1.915262,5.649744,3.684335,8.61,5.3l1-1.77c-2.898827-1.568531-5.709692-3.294442-8.42-5.17m674.61,1.57c-2.770707,1.791027-5.634756,3.433349-8.58,4.92l.9,1.79c3.006829-1.509718,5.930983-3.178756,8.76-5l-1.08-1.68m-134.13,2.69h-2v10h2v-10m-519.43,6.59l-.68,1.88c3.167604,1.149154,6.395772,2.123947,9.67,2.92l.47-2c-3.203672-.774105-6.36187-1.72557-9.46-2.85m632.19.92c-3.132055,1.022906-6.316609,1.877462-9.54,2.56l.41,2c3.297075-.701376,6.554921-1.575921,9.76-2.62l-.63-1.9M2,1572.13h-2v10h2v-10m852.39,2.19h-2v1.93h-4.5v2h4.5v6.07h2v-6.07h3.51v-2h-3.51v-1.93M656,1575.87l-.18,2c2.81.24,5.65.38,8.53.38h1.54v-2h-1.54c-2.81,0-5.6-.13-8.35-.38m585.83.21c-1.84.11-3.68.16-5.55.17h-4.39v2h4.39c1.9,0,3.79-.06,5.67-.17l-.12-2m-23.93.17h-10v2h10v-2m-24,0h-10v2h10v-2m-24,0h-10v2h10v-2m-24,0h-10v2h10v-2m-24,0h-10v2h10v-2m-24,0h-10v2h10v-2m-24,0h-10v2h10v-2m-24,0h-10v2h10v-2m-24,0h-10v2h10v-2m-24,0h-10v2h10v-2m-24,0h-10v2h10v-2m-24,0h-10v2h10v-2m-24,0h-10v2h10v-2m-24,0h-10v2h10v-2m-24,0h-10v2h10v-2m-48,0h-10v2h10v-2m-24,0h-10v2h10v-2m-24,0h-10v2h10v-2m-24,0h-10v2h10v-2m-24,0h-10v2h10v-2m-24,0h-10v2h10v-2m-24,0h-10v2h10v-2m462.42,11.93h-2v10h2v-10M2,1596.13h-2v10h2v-10m852.39,2.2h-2v10h2v-10m297.93,13.84h-2v10h2v-10M2,1620.13h-2v10h2v-10m852.39,2.2h-2v10h2v-10m297.93,13.84h-2v10h2v-10M2,1644.13h-2v10h2v-10m852.39,2.19h-2v10h2v-10m297.93,13.86h-2v10h2v-10M2,1668.13h-2v8.41c0,.54,0,1.08,0,1.61h2c0-.52,0-1,0-1.57v-8.41m852.39,2.2h-2v10h2v-10M1150,1684.08c-.265445,3.287813-.706071,6.559126-1.32,9.8l2,.37c.62849-3.306795,1.079138-6.644925,1.35-10l-2-.16M3.27,1691.89l-2,.33c.545607,3.324098,1.273369,6.615722,2.18,9.86l1.93-.54c-.88389-3.176458-1.598232-6.397673-2.14-9.65m851.12,2.44h-2v10h2v-10m290.72,12.91c-1.086511,3.110843-2.345119,6.158879-3.77,9.13l1.8.87c1.454904-3.044525,2.743467-6.165784,3.86-9.35l-1.89-.65m-1135,7.31l-1.81.82c1.381884,3.08213,2.930851,6.086593,4.64,9l1.72-1c-1.670612-2.844285-3.189406-5.775057-4.55-8.78m844.26,3.77h-2v10h2v-10m280.08,10c-1.859852,2.72728-3.862649,5.354282-6,7.87l1.53,1.3c2.176223-2.575475,4.212491-5.266019,6.1-8.06l-1.65-1.11M22.56,1734.7L21,1736c2.117471,2.62237,4.374044,5.129302,6.76,7.51l1.41-1.42c-2.338953-2.327537-4.548917-4.781198-6.62-7.35m831.83,7.63h-2v10h2v-10m264.41,3.79c-2.482973,2.172333-5.076423,4.215051-7.77,6.12l1.15,1.63c2.758638-1.937011,5.409264-4.023461,7.94-6.25l-1.32-1.5m-1079.13,5l-1.19,1.61c2.712266,1.999303,5.529632,3.851954,8.44,5.55l1-1.73c-2.849544-1.659229-5.606933-3.471895-8.26-5.43m1059.49,8.27c-2.951883,1.472049-5.97943,2.787213-9.07,3.94l.7,1.88c3.154208-1.171192,6.245085-2.506344,9.26-4l-.89-1.79m-1038.79,3.1l-.73,1.85c3.126773,1.255634,6.321842,2.334011,9.57,3.23l.53-1.93c-3.177528-.88132-6.305375-1.932838-9.37-3.15m794,3.77h-2v2.75h-1.25v2h1.25v5.26h2v-5.26h6.75v-2h-6.75v-2.75m222.4.79c-3.227568.673976-6.488901,1.174693-9.77,1.5l.2,2c3.357814-.334625,6.695743-.845328,10-1.53l-.41-2M83.3,1768.4l-.25,2c3.341883.408777,6.703499.635778,10.07.68v-2c-3.292578-.05599-6.580168-.279613-9.85-.67m969.84.68h-10v2h10v-2m-24,0h-10v2h10v-2m-24,0h-10v2h10v-2m-24,0h-10v2h10v-2m-24,0h-10v2h10v-2m-24,0h-10v2h10v-2m-24,0h-10v2h10v-2m-24,0h-10v2h10v-2m-48,0h-10v2h10v-2m-24,0h-10v2h10v-2m-24,0h-10v2h10v-2m-24,0h-10v2h10v-2m-24,0h-10v2h10v-2m-24,0h-10v2h10v-2m-24,0h-10v2h10v-2m-24,0h-10v2h10v-2m-24,0h-10v2h10v-2m-24,0h-10v2h10v-2m-24,0h-10v2h10v-2m-24,0h-10v2h10v-2m-24,0h-10v2h10v-2m-24,0h-10v2h10v-2m-24,0h-10v2h10v-2m-24,0h-10v2h10v-2m-24,0h-10v2h10v-2m-24,0h-10v2h10v-2m-24,0h-10v2h10v-2m-24,0h-10v2h10v-2m-24,0h-10v2h10v-2m-24,0h-10v2h10v-2m-24,0h-10v2h10v-2m-24,0h-10v2h10v-2m-24,0h-10v2h10v-2m-24,0h-10v2h10v-2m-24,0h-10v2h10v-2m-24,0h-10v2h10v-2m-24,0h-10v2h10v-2m-24,0h-10v2h10v-2m-24,0h-10v2h10v-2m737.25,21.24h-2v10h2v-10m0,24h-2v10h2v-10m0,24h-2v10h2v-10m0,24h-2v10h2v-10m0,24h-2v10h2v-10m0,24h-2v10h2v-10m0,24h-2v10h2v-10m0,24h-2v10h2v-10m0,24h-2v10h2v-10m0,24h-2v10h2v-10m0,24h-2v10h2v-10m0,24h-2v10h2v-10m0,24h-2v10h2v-10m0,24h-2v10h2v-10m0,24h-2v10h2v-10m0,24h-2v10h2v-10m0,24h-2v10h2v-10m0,24h-2v2.95q0,3.6.26,7.12l2-.15q-.25-3.45-.26-7v-2.95m2.31,23.6l-1.94.45c.740286,3.285074,1.661694,6.526691,2.76,9.71l1.89-.65c-1.069139-3.12039-1.973718-6.294758-2.71-9.51m8.19,22.21l-1.77.93c1.55909,2.983972,3.278262,5.881528,5.15,8.68l1.66-1.11v0c-1.840496-2.736962-3.526463-5.574727-5.05-8.5m13.56,19.4l-1.47,1.34c2.264813,2.493199,4.661582,4.863263,7.18,7.1l1.33-1.5c-2.453103-2.189316-4.789648-4.505834-7-6.94m18,15.34l-1.1,1.68c2.827114,1.818715,5.747804,3.48768,8.75,5l.91-1.78c-2.940306-1.513098-5.797708-3.182142-8.56-5m21.33,10.27l-.62,1.9c3.199773,1.058715,6.45454,1.943344,9.75,2.65l.41-2v0c-3.228821-.689989-6.41702-1.55798-9.55-2.6m23.25,4.49l-.13,2q3,.2,6,.19h4.11v-2h-4.08c-2,0-3.92-.06-5.85-.18m849.93.18h-10v2h10v-2m-24,0h-10v2h10v-2m-24,0h-10v2h10v-2m-24,0h-10v2h10v-2m-24,0h-10v2h10v-2m-24,0h-10v2h10v-2m-24,0h-10v2h10v-2m-24,0h-10v2h10v-2m-24,0h-10v2h10v-2m-24,0h-10v2h10v-2m-24,0h-10v2h10v-2m-24,0h-10v2h10v-2m-24,0h-10v2h10v-2m-24,0h-10v2h10v-2m-24,0h-10v2h10v-2m-24,0h-10v2h10v-2m-24,0h-10v2h10v-2m-24,0h-10v2h10v-2m-24,0h-10v2h10v-2m-24,0h-10v2h10v-2m-24,0h-10v2h10v-2m-24,0h-10v2h10v-2m-24,0h-10v2h10v-2m-24,0h-10v2h10v-2m-24,0h-10v2h10v-2m-24,0h-10v2h10v-2m-24,0h-10v2h10v-2m-24,0h-10v2h10v-2m-24,0h-10v2h10v-2m-24,0h-10v2h10v-2m-24,0h-10v2h10v-2m-24,0h-10v2h10v-2m-24,0h-10v2h10v-2m-24,0h-10v2h10v-2m-24,0h-10v2h10v-2M571.82,0h-2v.23h2v-.23" transform="matrix(.710141-.41 0.71 0.409919-555.096993 292.263367)" fill="#fff"/>
    </g>
</svg>
